<?xml version="1.0" encoding="UTF-8"?> <svg xmlns="http://www.w3.org/2000/svg" width="1217" height="1014" viewBox="0 0 1217 1014" fill="none"><path d="M1046.71 47.841C995.736 16.6634 936.643 0.0747818 876.291 7.02118e-05C824.124 0.524726 772.81 12.8324 726.458 35.9365C680.105 59.0405 640.003 92.2992 609.364 133.049C578.774 92.2503 538.682 58.9553 492.319 35.8457C445.956 12.7362 394.617 0.457889 342.438 7.02118e-05C281.793 -0.0393864 222.386 16.5519 171.135 47.841C7.45942 146.353 -48.5658 364.609 45.8851 535.024C123.03 674.301 448.328 916.053 565.952 1000.41C578.248 1009.23 593.162 1014 608.484 1014C623.806 1014 638.721 1009.23 651.017 1000.41C768.347 915.486 1093.94 674.301 1171.08 535.024C1265.53 364.326 1209.51 146.07 1046.71 47.841ZM1123.27 510.113C1064.61 614.287 824.959 809.614 619.044 957.666C616.242 959.669 612.851 960.76 609.364 960.78C605.967 960.759 602.67 959.666 599.978 957.666C394.65 809.614 153.536 614.287 95.7505 510.113C14.7926 363.76 62.3114 176.926 201.348 93.1342C243.583 67.3887 292.483 53.6533 342.438 53.5029C386.024 53.8707 428.905 64.1631 467.592 83.5441C506.279 102.925 539.678 130.847 565.072 165.037L609.364 221.654L653.656 165.037C679.051 130.847 712.45 102.925 751.136 83.5441C789.823 64.1631 832.704 53.8707 876.291 53.5029C926.246 53.6533 975.145 67.3887 1017.38 93.1342C1155.83 176.643 1203.35 363.477 1122.39 509.831L1123.27 510.113Z" fill="#742020"></path></svg> 